Coordinates
version=1
nRows=8
nColumns=34
inDegrees=yes

Units are S.I. units (second, meters, Newtons, ...)
If the header above contains a line with 'inDegrees', this indicates whether rotational values are in degrees (yes) or radians (no).

endheader
time	pelvis_tilt	pelvis_list	pelvis_rotation	pelvis_tx	pelvis_ty	pelvis_tz	hip_flexion_r	hip_adduction_r	hip_rotation_r	knee_angle_r	ankle_angle_r	subtalar_angle_r	mtp_angle_r	hip_flexion_l	hip_adduction_l	hip_rotation_l	knee_angle_l	ankle_angle_l	subtalar_angle_l	mtp_angle_l	lumbar_extension	lumbar_bending	lumbar_rotation	arm_flex_r	arm_add_r	arm_rot_r	elbow_flex_r	pro_sup_r	arm_flex_l	arm_add_l	arm_rot_l	elbow_flex_l	pro_sup_l
      0.00000000	     15.49971947	    -34.77999623	    -56.97683966	      0.26852211	      0.46510636	     -0.05747812	     88.23687260	     -8.35904827	     -0.21332994	    124.52353537	     -1.01802844	    -15.95794028	      0.00000000	     89.20212094	     -2.92086191	     11.18662508	    132.05337937	     15.14282214	     -0.97762197	      0.00000000	    -53.31520689	      1.16667256	      6.86683115	     47.60663390	    -11.05126085	      3.82460667	     81.66837658	    119.74817918	     60.13619084	    -14.78374268	     24.13043384	     72.80498879	    114.55176183
      0.01666670	     15.49587741	    -34.76406287	    -56.95253427	      0.26839256	      0.46530607	     -0.05750819	     88.23673065	     -8.36761381	     -0.21565540	    124.51727393	     -1.01124474	    -15.95909194	      0.00000000	     89.22090992	     -2.92739217	     11.17996893	    132.05003712	     15.15278890	     -0.97738190	      0.00000000	    -53.34985600	      1.15203749	      6.88981125	     47.58871768	    -11.06325607	      3.81801739	     81.65622275	    119.74817918	     60.11312010	    -14.82482200	     24.12431129	     72.77676988	    114.55925259
      0.03333330	     15.51719924	    -34.76580331	    -56.96759350	      0.26861768	      0.46525934	     -0.05738173	     88.21930284	     -8.42419829	     -0.21907404	    124.51475075	     -0.97329993	    -15.97397322	      0.00000000	     89.18077392	     -2.97876220	     11.13040135	    132.03316187	     15.18598013	     -0.96470378	      0.00000000	    -53.32563627	      1.19154986	      6.90999147	     47.57041502	    -11.11883024	      3.79933236	     81.62811474	    119.74817918	     60.10284869	    -14.97636729	     24.11363657	     72.68282492	    114.59001036
      0.05000000	     15.52381921	    -34.73985820	    -56.95707575	      0.26865189	      0.46540612	     -0.05727975	     88.21936566	     -8.46004776	     -0.20569975	    124.54094323	     -0.95511894	    -15.98201984	      0.00000000	     89.19435328	     -3.00164803	     11.10720561	    132.05090554	     15.20569750	     -0.96017365	      0.00000000	    -53.37156192	      1.20588819	      6.96793186	     47.57101308	    -11.12896661	      3.80761276	     81.62001429	    119.74817918	     60.09740243	    -15.05823976	     24.12025038	     72.65345291	    114.60343919
      0.06666670	     15.65604246	    -34.76184785	    -56.88620930	      0.26890004	      0.46557049	     -0.05712299	     88.11747443	     -8.58584385	     -0.13114312	    124.61336460	     -0.59589546	    -15.89053655	      0.00000000	     89.01562045	     -3.10550630	     10.95669985	    132.09017429	     15.63346508	     -0.72971763	      0.00000000	    -53.48876988	      1.23129087	      6.84089595	     47.73719959	    -11.36048230	      4.33472362	     81.53120413	    119.74817918	     60.36070057	    -15.76534808	     25.01692362	     72.70349716	    115.10416026
      0.08333330	     15.65712835	    -34.73074915	    -56.91288308	      0.26944121	      0.46563139	     -0.05705200	     88.13533884	     -8.64887033	     -0.11069525	    124.64119391	     -0.58935559	    -15.86832404	      0.00000000	     89.01768709	     -3.18207493	     10.83615133	    132.11944035	     15.63119638	     -0.68796429	      0.00000000	    -53.53326932	      1.32036295	      6.90745657	     47.78346141	    -11.47819455	      4.29529616	     81.51372083	    119.74817918	     60.37697787	    -15.96505869	     25.04308772	     72.69457487	    115.15863154
      0.10000000	     16.02139223	    -34.52930375	    -56.68783936	      0.27003700	      0.46561449	     -0.05694727	     88.26939674	     -8.85220142	      0.37541226	    124.78667041	     -0.22236548	    -15.35372219	      0.00000000	     88.90892807	     -3.15416605	     10.29097134	    132.06531512	     15.66449659	     -0.68359234	      0.00000000	    -53.60536534	      1.14970702	      6.59486637	     47.90931293	    -11.66510819	      4.66977983	     81.42878459	    119.74817918	     60.66548077	    -16.63068488	     25.59840694	     72.90738244	    119.74817918
      0.11666670	     15.96355593	    -34.50928216	    -56.76440013	      0.27053972	      0.46572519	     -0.05693377	     88.28498462	     -8.92704608	      0.35035885	    124.79589531	     -0.26009640	    -15.30209455	      0.00000000	     88.91211006	     -3.28934426	     10.20206684	    132.09587693	     15.75748804	     -0.62921577	      0.00000000	    -53.68808744	      1.27105314	      6.67270839	     48.04763629	    -11.98941837	      4.95381412	     81.41247730	    119.74817918	     60.79099113	    -17.08497153	     26.07297341	     73.21308808	    119.74817918
